<svg width="170" height="63" viewBox="0 0 170 63" fill="none" xmlns="http://www.w3.org/2000/svg">
<g clip-path="url(#clip0_35_149)">
<mask id="mask0_35_149" style="mask-type:alpha" maskUnits="userSpaceOnUse" x="2" y="2" width="58" height="58">
<path d="M56.9304 36.2284H36.2285V56.9304H56.9304V36.2284ZM16.8204 5.17549L28.4652 25.8774H5.17554L16.8204 5.17549ZM46.5794 25.8774C49.3247 25.8774 51.9575 24.7869 53.8987 22.8457C55.8399 20.9045 56.9304 18.2717 56.9304 15.5265C56.9304 12.7812 55.8399 10.1484 53.8987 8.20722C51.9575 6.26603 49.3247 5.17549 46.5794 5.17549C43.8342 5.17549 41.2014 6.26603 39.2602 8.20722C37.319 10.1484 36.2285 12.7812 36.2285 15.5265C36.2285 18.2717 37.319 20.9045 39.2602 22.8457C41.2014 24.7869 43.8342 25.8774 46.5794 25.8774Z" fill="white" stroke="white" stroke-width="5.17549" stroke-linejoin="round"/>
<path d="M5.17554 36.2284L25.8775 56.9303M25.8775 36.2284L5.17554 56.9303" stroke="white" stroke-width="5.17549" stroke-linecap="round" stroke-linejoin="round"/>
</mask>
<g mask="url(#mask0_35_149)">
<path d="M0 0H62.1058V62.1058H0V0Z" fill="#A100ED"/>
</g>
<g clip-path="url(#clip1_35_149)">
<mask id="mask1_35_149" style="mask-type:alpha" maskUnits="userSpaceOnUse" x="2" y="2" width="58" height="58">
<path d="M56.9304 36.2284H36.2285V56.9304H56.9304V36.2284ZM16.8204 5.17549L28.4652 25.8774H5.17554L16.8204 5.17549ZM46.5794 25.8774C49.3247 25.8774 51.9575 24.7869 53.8987 22.8457C55.8399 20.9045 56.9304 18.2717 56.9304 15.5265C56.9304 12.7812 55.8399 10.1484 53.8987 8.20722C51.9575 6.26603 49.3247 5.17549 46.5794 5.17549C43.8342 5.17549 41.2014 6.26603 39.2602 8.20722C37.319 10.1484 36.2285 12.7812 36.2285 15.5265C36.2285 18.2717 37.319 20.9045 39.2602 22.8457C41.2014 24.7869 43.8342 25.8774 46.5794 25.8774Z" fill="white" stroke="white" stroke-width="5.17549" stroke-linejoin="round"/>
</mask>
<g mask="url(#mask1_35_149)">
<path d="M0 0H62.1058V62.1058H0V0Z" fill="#DA00FE"/>
</g>
</g>
</g>
<path d="M80.8411 34.1457C79.7922 34.1457 78.8123 33.9525 77.9014 33.5661C76.9905 33.1796 76.19 32.6483 75.5 31.972C74.8099 31.282 74.2648 30.4884 73.8645 29.5913C73.4781 28.6942 73.2849 27.7281 73.2849 26.693C73.2849 25.6579 73.4781 24.6918 73.8645 23.7948C74.2648 22.8977 74.8099 22.111 75.5 21.4347C76.19 20.7447 76.9905 20.2064 77.9014 19.82C78.8123 19.4335 79.7922 19.2403 80.8411 19.2403C81.4897 19.2403 82.1177 19.3093 82.725 19.4473C83.3322 19.5854 83.8912 19.7924 84.4018 20.0684C84.6088 20.1788 84.7606 20.3306 84.8573 20.5239C84.9677 20.7033 85.0229 20.8896 85.0229 21.0828C85.0229 21.414 84.9125 21.7108 84.6916 21.973C84.4708 22.2352 84.1879 22.3663 83.8429 22.3663C83.7324 22.3663 83.6151 22.3525 83.4909 22.3249C83.3805 22.2973 83.2701 22.2559 83.1597 22.2007C82.8147 22.0489 82.4489 21.9316 82.0625 21.8488C81.6761 21.766 81.2689 21.7246 80.8411 21.7246C79.944 21.7246 79.1228 21.9523 78.3775 22.4077C77.6461 22.8494 77.0595 23.4497 76.6179 24.2088C76.19 24.9541 75.9761 25.7821 75.9761 26.693C75.9761 27.5901 76.19 28.4182 76.6179 29.1773C77.0595 29.9363 77.6461 30.5436 78.3775 30.999C79.1228 31.4407 79.944 31.6615 80.8411 31.6615C81.2551 31.6615 81.7106 31.6201 82.2074 31.5373C82.7043 31.4545 83.1114 31.3441 83.4288 31.2061L83.2425 31.8271V28.2871L83.5944 28.5976H81.2965C80.9377 28.5976 80.6341 28.4803 80.3856 28.2457C80.151 28.0111 80.0337 27.7143 80.0337 27.3555C80.0337 26.9967 80.151 26.6999 80.3856 26.4653C80.6341 26.2307 80.9377 26.1134 81.2965 26.1134H84.6916C85.0505 26.1134 85.3472 26.2376 85.5818 26.486C85.8164 26.7206 85.9338 27.0174 85.9338 27.3762V31.765C85.9338 32.041 85.8647 32.2688 85.7267 32.4482C85.6025 32.6276 85.4576 32.7725 85.292 32.8829C84.6571 33.2694 83.9602 33.5799 83.2011 33.8145C82.4558 34.0353 81.6692 34.1457 80.8411 34.1457ZM93.7444 22.6976L89.2728 33.2141C89.1761 33.4764 89.0243 33.6834 88.8173 33.8352C88.6241 33.9732 88.4102 34.0422 88.1756 34.0422C87.8029 34.0422 87.5269 33.9387 87.3475 33.7317C87.1681 33.5247 87.0783 33.2694 87.0783 32.9657C87.0783 32.8415 87.099 32.7104 87.1405 32.5724L92.2952 20.1926C92.4056 19.9166 92.5713 19.7027 92.7921 19.5509C93.0267 19.399 93.2751 19.3369 93.5374 19.3645C93.7858 19.3645 94.0135 19.4404 94.2205 19.5923C94.4413 19.7303 94.6001 19.9304 94.6967 20.1926L99.7893 32.324C99.8583 32.5034 99.8929 32.669 99.8929 32.8208C99.8929 33.1934 99.7686 33.4902 99.5202 33.711C99.2856 33.9318 99.0234 34.0422 98.7335 34.0422C98.4851 34.0422 98.2574 33.9663 98.0504 33.8145C97.8572 33.6627 97.7053 33.4557 97.5949 33.1934L93.144 22.8218L93.7444 22.6976ZM89.9145 30.6885L91.0531 28.3078H96.6426L97.036 30.6885H89.9145ZM102.95 19.4266C103.143 19.4266 103.343 19.4819 103.55 19.5923C103.771 19.6889 103.937 19.82 104.047 19.9856L109.078 27.7281L108.043 27.6867L113.197 19.9856C113.46 19.613 113.798 19.4266 114.212 19.4266C114.543 19.4266 114.84 19.544 115.102 19.7786C115.364 20.0132 115.495 20.3168 115.495 20.6895V32.6759C115.495 33.0347 115.378 33.3384 115.143 33.5868C114.909 33.8214 114.598 33.9387 114.212 33.9387C113.825 33.9387 113.508 33.8214 113.26 33.5868C113.025 33.3384 112.908 33.0347 112.908 32.6759V22.9253L113.715 23.1116L109.492 29.5499C109.368 29.7017 109.209 29.8328 109.016 29.9432C108.836 30.0536 108.65 30.102 108.457 30.0882C108.277 30.102 108.091 30.0536 107.898 29.9432C107.718 29.8328 107.566 29.7017 107.442 29.5499L103.488 23.2979L104.026 22.2007V32.6759C104.026 33.0347 103.916 33.3384 103.695 33.5868C103.474 33.8214 103.185 33.9387 102.826 33.9387C102.481 33.9387 102.198 33.8214 101.977 33.5868C101.756 33.3384 101.646 33.0347 101.646 32.6759V20.6895C101.646 20.3444 101.77 20.0477 102.018 19.7993C102.281 19.5509 102.591 19.4266 102.95 19.4266ZM119.87 19.4473H126.806C127.164 19.4473 127.461 19.5647 127.696 19.7993C127.944 20.0201 128.068 20.3099 128.068 20.6688C128.068 21.0138 127.944 21.2967 127.696 21.5175C127.461 21.7246 127.164 21.8281 126.806 21.8281H121.009L121.195 21.4761V25.513L121.03 25.3474H125.874C126.233 25.3474 126.53 25.4647 126.764 25.6993C127.013 25.9202 127.137 26.21 127.137 26.5688C127.137 26.9139 127.013 27.1968 126.764 27.4176C126.53 27.6246 126.233 27.7281 125.874 27.7281H121.092L121.195 27.5625V31.7443L121.03 31.558H126.806C127.164 31.558 127.461 31.6822 127.696 31.9306C127.944 32.1652 128.068 32.4413 128.068 32.7587C128.068 33.1037 127.944 33.3867 127.696 33.6075C127.461 33.8283 127.164 33.9387 126.806 33.9387H119.87C119.512 33.9387 119.208 33.8214 118.96 33.5868C118.725 33.3384 118.608 33.0347 118.608 32.6759V20.7102C118.608 20.3513 118.725 20.0546 118.96 19.82C119.208 19.5716 119.512 19.4473 119.87 19.4473Z" fill="#DA00FE"/>
<path d="M108.426 54.8477C107.46 54.8477 106.591 54.7304 105.818 54.4957C105.045 54.2473 104.307 53.8195 103.603 53.2122C103.423 53.0604 103.285 52.8879 103.189 52.6947C103.092 52.5015 103.044 52.3082 103.044 52.115C103.044 51.7976 103.154 51.5216 103.375 51.2869C103.61 51.0385 103.9 50.9143 104.245 50.9143C104.507 50.9143 104.741 50.9971 104.948 51.1627C105.473 51.5906 105.99 51.9149 106.501 52.1357C107.026 52.3565 107.667 52.467 108.426 52.467C108.937 52.467 109.406 52.3911 109.834 52.2392C110.262 52.0736 110.607 51.8597 110.869 51.5975C111.131 51.3215 111.263 51.0109 111.263 50.6659C111.263 50.2518 111.138 49.8999 110.89 49.6101C110.642 49.3203 110.262 49.0787 109.751 48.8855C109.241 48.6785 108.592 48.5198 107.805 48.4094C107.06 48.299 106.405 48.1334 105.839 47.9125C105.273 47.6779 104.797 47.3881 104.41 47.043C104.038 46.6842 103.755 46.2702 103.561 45.8009C103.368 45.3179 103.272 44.7796 103.272 44.1862C103.272 43.2891 103.499 42.5231 103.955 41.8883C104.424 41.2534 105.052 40.7704 105.839 40.4391C106.625 40.1079 107.495 39.9423 108.447 39.9423C109.344 39.9423 110.172 40.0803 110.931 40.3563C111.704 40.6185 112.332 40.9567 112.815 41.3707C113.215 41.6881 113.416 42.0539 113.416 42.4679C113.416 42.7715 113.298 43.0476 113.064 43.296C112.829 43.5444 112.553 43.6686 112.236 43.6686C112.029 43.6686 111.842 43.6065 111.677 43.4823C111.456 43.2891 111.159 43.1097 110.786 42.9441C110.414 42.7646 110.02 42.6197 109.606 42.5093C109.192 42.3851 108.806 42.323 108.447 42.323C107.854 42.323 107.35 42.3989 106.936 42.5507C106.536 42.7025 106.232 42.9096 106.025 43.1718C105.818 43.434 105.714 43.7376 105.714 44.0827C105.714 44.4967 105.832 44.8417 106.066 45.1178C106.315 45.38 106.667 45.5939 107.122 45.7595C107.578 45.9113 108.123 46.0494 108.758 46.1736C109.586 46.3254 110.31 46.5048 110.931 46.7118C111.566 46.9188 112.091 47.188 112.505 47.5192C112.919 47.8366 113.229 48.2438 113.436 48.7406C113.643 49.2237 113.747 49.8171 113.747 50.521C113.747 51.4181 113.498 52.1909 113.002 52.8396C112.505 53.4883 111.849 53.9851 111.035 54.3301C110.234 54.6752 109.365 54.8477 108.426 54.8477ZM121.027 54.6407C120.641 54.6407 120.323 54.5234 120.075 54.2887C119.827 54.0403 119.702 53.7367 119.702 53.3778V41.3707H122.394V53.3778C122.394 53.7367 122.262 54.0403 122 54.2887C121.752 54.5234 121.427 54.6407 121.027 54.6407ZM116.452 42.53C116.093 42.53 115.79 42.4196 115.541 42.1988C115.307 41.978 115.189 41.6881 115.189 41.3293C115.189 40.9705 115.307 40.6875 115.541 40.4805C115.79 40.2597 116.093 40.1493 116.452 40.1493H125.644C126.003 40.1493 126.299 40.2597 126.534 40.4805C126.782 40.7014 126.907 40.9912 126.907 41.35C126.907 41.7088 126.782 41.9987 126.534 42.2195C126.299 42.4265 126.003 42.53 125.644 42.53H116.452ZM142.008 47.395C142.008 48.4301 141.835 49.3962 141.49 50.2933C141.145 51.1903 140.655 51.9839 140.02 52.674C139.399 53.3502 138.654 53.8816 137.784 54.268C136.929 54.6545 135.99 54.8477 134.969 54.8477C133.948 54.8477 133.009 54.6545 132.153 54.268C131.298 53.8816 130.552 53.3502 129.918 52.674C129.297 51.9839 128.814 51.1903 128.468 50.2933C128.123 49.3962 127.951 48.4301 127.951 47.395C127.951 46.3599 128.123 45.3938 128.468 44.4967C128.814 43.5996 129.297 42.8129 129.918 42.1367C130.552 41.4466 131.298 40.9084 132.153 40.5219C133.009 40.1355 133.948 39.9423 134.969 39.9423C135.99 39.9423 136.929 40.1355 137.784 40.5219C138.654 40.9084 139.399 41.4466 140.02 42.1367C140.655 42.8129 141.145 43.5996 141.49 44.4967C141.835 45.3938 142.008 46.3599 142.008 47.395ZM139.316 47.395C139.316 46.4703 139.13 45.6353 138.757 44.89C138.385 44.131 137.874 43.5306 137.225 43.089C136.577 42.6473 135.825 42.4265 134.969 42.4265C134.113 42.4265 133.361 42.6473 132.712 43.089C132.064 43.5306 131.553 44.1241 131.18 44.8693C130.822 45.6146 130.642 46.4565 130.642 47.395C130.642 48.3197 130.822 49.1615 131.18 49.9206C131.553 50.6659 132.064 51.2593 132.712 51.701C133.361 52.1426 134.113 52.3634 134.969 52.3634C135.825 52.3634 136.577 52.1426 137.225 51.701C137.874 51.2593 138.385 50.6659 138.757 49.9206C139.13 49.1615 139.316 48.3197 139.316 47.395ZM145.874 54.6407C145.488 54.6407 145.143 54.5234 144.839 54.2887C144.536 54.0403 144.384 53.7367 144.384 53.3778V41.4121C144.384 41.0533 144.501 40.7566 144.736 40.5219C144.984 40.2735 145.288 40.1493 145.647 40.1493H151.609C152.327 40.1493 152.996 40.3425 153.617 40.729C154.252 41.1016 154.762 41.626 155.149 42.3023C155.535 42.9648 155.729 43.7307 155.729 44.6002C155.729 45.1247 155.618 45.6353 155.397 46.1322C155.19 46.629 154.901 47.0776 154.528 47.4778C154.169 47.878 153.762 48.1886 153.306 48.4094L153.327 47.9332C153.714 48.1403 154.031 48.3887 154.279 48.6785C154.542 48.9545 154.742 49.2582 154.88 49.5894C155.032 49.9068 155.121 50.2518 155.149 50.6245C155.204 50.9695 155.239 51.2731 155.252 51.5354C155.28 51.7976 155.321 52.0184 155.377 52.1978C155.446 52.3773 155.57 52.5153 155.749 52.6119C156.053 52.7913 156.239 53.0535 156.308 53.3985C156.391 53.7298 156.315 54.0265 156.081 54.2887C155.929 54.4681 155.735 54.5855 155.501 54.6407C155.266 54.6821 155.032 54.6821 154.797 54.6407C154.562 54.5855 154.369 54.5165 154.217 54.4336C153.983 54.2956 153.748 54.0955 153.513 53.8333C153.279 53.5573 153.086 53.1915 152.934 52.7361C152.796 52.2806 152.727 51.6941 152.727 50.9764C152.727 50.7418 152.685 50.5279 152.603 50.3347C152.52 50.1276 152.402 49.9551 152.251 49.8171C152.099 49.6653 151.906 49.5549 151.671 49.4859C151.436 49.4031 151.16 49.3617 150.843 49.3617H146.661L146.972 48.8855V53.3778C146.972 53.7367 146.875 54.0403 146.682 54.2887C146.489 54.5234 146.219 54.6407 145.874 54.6407ZM146.682 47.2294H151.505C151.754 47.2294 151.995 47.119 152.23 46.8981C152.465 46.6635 152.658 46.353 152.81 45.9665C152.961 45.5663 153.037 45.1316 153.037 44.6623C153.037 44.0551 152.872 43.5513 152.54 43.1511C152.223 42.737 151.878 42.53 151.505 42.53H146.723L146.972 41.8676V47.7262L146.682 47.2294ZM159.859 40.1493H166.794C167.153 40.1493 167.45 40.2666 167.684 40.5012C167.933 40.7221 168.057 41.0119 168.057 41.3707C168.057 41.7157 167.933 41.9987 167.684 42.2195C167.45 42.4265 167.153 42.53 166.794 42.53H160.998L161.184 42.1781V46.215L161.018 46.0494H165.863C166.222 46.0494 166.518 46.1667 166.753 46.4013C167.001 46.6221 167.125 46.9119 167.125 47.2708C167.125 47.6158 167.001 47.8987 166.753 48.1195C166.518 48.3266 166.222 48.4301 165.863 48.4301H161.081L161.184 48.2645V52.4463L161.018 52.2599H166.794C167.153 52.2599 167.45 52.3842 167.684 52.6326C167.933 52.8672 168.057 53.1432 168.057 53.4607C168.057 53.8057 167.933 54.0886 167.684 54.3094C167.45 54.5303 167.153 54.6407 166.794 54.6407H159.859C159.5 54.6407 159.197 54.5234 158.948 54.2887C158.714 54.0403 158.596 53.7367 158.596 53.3778V41.4121C158.596 41.0533 158.714 40.7566 158.948 40.5219C159.197 40.2735 159.5 40.1493 159.859 40.1493Z" fill="#A100ED"/>
<defs>
<clipPath id="clip0_35_149">
<rect width="62.1058" height="62.1058" fill="white"/>
</clipPath>
<clipPath id="clip1_35_149">
<rect width="29.759" height="62.1058" fill="white" transform="translate(32.3468)"/>
</clipPath>
</defs>
</svg>
