<svg width="16" height="16" viewBox="0 0 16 16" fill="none" xmlns="http://www.w3.org/2000/svg">
<path d="M7.765 1.559C7.83734 1.52048 7.91804 1.50034 8 1.50034C8.08196 1.50034 8.16266 1.52048 8.235 1.559L15.735 5.559C15.8149 5.60168 15.8817 5.66524 15.9282 5.74292C15.9748 5.82059 15.9994 5.90944 15.9994 6C15.9994 6.09056 15.9748 6.17942 15.9282 6.25709C15.8817 6.33476 15.8149 6.39833 15.735 6.441L8.235 10.441C8.16266 10.4795 8.08196 10.4997 8 10.4997C7.91804 10.4997 7.83734 10.4795 7.765 10.441L0.265001 6.441C0.185128 6.39833 0.118346 6.33476 0.0717828 6.25709C0.02522 6.17942 0.00062561 6.09056 0.00062561 6C0.00062561 5.90944 0.02522 5.82059 0.0717828 5.74292C0.118346 5.66524 0.185128 5.60168 0.265001 5.559L7.765 1.559Z" fill="#B7B7B7"/>
<path d="M2.125 8.567L0.265001 9.559C0.185128 9.60168 0.118346 9.66524 0.0717828 9.74291C0.02522 9.82058 0.00062561 9.90944 0.00062561 10C0.00062561 10.0906 0.02522 10.1794 0.0717828 10.2571C0.118346 10.3348 0.185128 10.3983 0.265001 10.441L7.765 14.441C7.83734 14.4795 7.91804 14.4997 8 14.4997C8.08196 14.4997 8.16266 14.4795 8.235 14.441L15.735 10.441C15.8149 10.3983 15.8817 10.3348 15.9282 10.2571C15.9748 10.1794 15.9994 10.0906 15.9994 10C15.9994 9.90944 15.9748 9.82058 15.9282 9.74291C15.8817 9.66524 15.8149 9.60168 15.735 9.559L13.875 8.567L8.705 11.323C8.48798 11.4386 8.24587 11.499 8 11.499C7.75413 11.499 7.51202 11.4386 7.295 11.323L2.125 8.567Z" fill="#B7B7B7"/>
</svg>
